<svg xmlns="http://www.w3.org/2000/svg" width="59.699" height="59.699" viewBox="0 0 59.699 59.699">
  <g id="Grupo_371297" data-name="Grupo 371297" transform="translate(1053.699 4578.449) rotate(180)">
    <path id="chevron-up-solid" d="M10.055.468a1.6,1.6,0,0,1,2.261,0L21.9,10.05a1.6,1.6,0,0,1-2.261,2.261L11.182,3.856,2.729,12.305A1.6,1.6,0,0,1,.468,10.045L10.05.463Z" transform="translate(1030.238 4537.417) rotate(90)"/>
    <path id="Elipse_2" data-name="Elipse 2" d="M29.849,1A28.857,28.857,0,0,0,18.62,56.432,28.857,28.857,0,0,0,41.079,3.267,28.668,28.668,0,0,0,29.849,1m0-1A29.849,29.849,0,1,1,0,29.849,29.849,29.849,0,0,1,29.849,0Z" transform="translate(1053.699 4578.449) rotate(180)"/>
  </g>
</svg>
