<svg xmlns="http://www.w3.org/2000/svg" width="20.764" height="15.572" viewBox="0 0 20.764 15.572">
  <path id="envelope-regular" d="M2.6,65.947a.651.651,0,0,0-.649.649v.9l7,5.742a2.268,2.268,0,0,0,2.883,0l6.992-5.742v-.9a.651.651,0,0,0-.649-.649ZM1.947,70.01v6.967a.651.651,0,0,0,.649.649H18.168a.651.651,0,0,0,.649-.649V70.01l-5.759,4.729a4.218,4.218,0,0,1-5.353,0ZM0,66.6A2.6,2.6,0,0,1,2.6,64H18.168a2.6,2.6,0,0,1,2.6,2.6V76.977a2.6,2.6,0,0,1-2.6,2.6H2.6a2.6,2.6,0,0,1-2.6-2.6Z" transform="translate(0 -64)" fill="#fde101"/>
</svg>
