<?xml version="1.0" encoding="utf-8"?>
<!-- Generator: Adobe Illustrator 25.2.1, SVG Export Plug-In . SVG Version: 6.00 Build 0)  -->
<svg version="1.1" id="Layer_1" xmlns="http://www.w3.org/2000/svg" xmlns:xlink="http://www.w3.org/1999/xlink" x="0px" y="0px"
	 width="475px" height="475px" viewBox="0 0 475 475" style="enable-background:new 0 0 475 475;" xml:space="preserve">
<style type="text/css">
	.st0{fill-rule:evenodd;clip-rule:evenodd;fill:#00823F;}
	.st1{fill:#16B864;}
	.st2{filter:url(#Adobe_OpacityMaskFilter);}
	.st3{fill-rule:evenodd;clip-rule:evenodd;fill:#FFFFFF;}
	.st4{mask:url(#mask-6_3_);}
	.st5{fill-rule:evenodd;clip-rule:evenodd;fill:#16B864;}
</style>
<g id="PropertyPlaceholder">
	<rect id="Rectangle" class="st0" width="475" height="475"/>
	<g id="image" transform="translate(83.141410, 79.986437)">
		<g>
			<path id="Rectangle_3_" class="st0" d="M138.4-0.3c1.1-0.2,2.2,0,3,0.5c0.9,0.5,1.5,1.4,1.8,2.5l0,0l33.9,147
				c0.2,1.1,0,2.2-0.5,3s-1.4,1.5-2.5,1.8l0,0L38.4,185.9c-1.1,0.2-2.2,0-3-0.5c-0.9-0.5-1.5-1.4-1.8-2.5l0,0l-33.9-147
				c-0.2-1.1,0-2.2,0.5-3c0.5-0.9,1.4-1.5,2.5-1.8l0,0L138.4-0.3z"/>
			<path class="st1" d="M37.5,187c-0.9,0-1.8-0.3-2.6-0.8c-1.1-0.7-1.9-1.8-2.2-3.1l-33.9-147c-0.3-1.3-0.1-2.6,0.6-3.8
				c0.7-1.1,1.8-1.9,3.1-2.2L138.2-1.3c1.3-0.3,2.6-0.1,3.8,0.6s1.9,1.8,2.2,3.1l33.9,147c0.3,1.3,0.1,2.6-0.6,3.8
				c-0.7,1.1-1.8,1.9-3.1,2.2L38.7,186.8C38.3,186.9,37.9,187,37.5,187z M139.3,0.6c-0.2,0-0.5,0-0.7,0.1v0L2.9,32
				c-0.8,0.2-1.4,0.7-1.9,1.3c-0.4,0.7-0.6,1.5-0.4,2.3l33.9,147c0.2,0.8,0.7,1.4,1.3,1.9c0.7,0.4,1.5,0.6,2.3,0.4L174,153.6
				c0.8-0.2,1.4-0.7,1.9-1.3c0.4-0.7,0.6-1.5,0.4-2.3l-33.9-147c-0.2-0.8-0.7-1.4-1.3-1.9C140.4,0.8,139.9,0.6,139.3,0.6z"/>
		</g>
		<path class="st1" d="M40.1,168.9c-0.9,0-1.8-0.3-2.6-0.8c-1.1-0.7-1.9-1.8-2.2-3.1L6.5,41.5c-0.3-1.3-0.1-2.6,0.6-3.8
			c0.7-1.1,1.8-1.9,3.1-2.2L132.9,7c1.3-0.3,2.6-0.1,3.8,0.6c1.1,0.7,1.9,1.8,2.2,3.1l28.7,123.5c0.3,1.3,0.1,2.6-0.6,3.8
			c-0.7,1.1-1.8,1.9-3.1,2.2L41.3,168.8C40.9,168.9,40.5,168.9,40.1,168.9z M134.1,8.8c-0.2,0-0.5,0-0.7,0.1L10.7,37.5
			c-0.8,0.2-1.4,0.7-1.9,1.3c-0.4,0.7-0.6,1.5-0.4,2.3l28.7,123.5c0.2,0.8,0.7,1.4,1.3,1.9c0.7,0.4,1.5,0.6,2.3,0.4l122.7-28.5
			c0.8-0.2,1.4-0.7,1.9-1.3c0.4-0.7,0.6-1.5,0.4-2.3L137,11.2c-0.2-0.8-0.7-1.4-1.3-1.9C135.2,9,134.6,8.8,134.1,8.8z"/>
	</g>
	<g id="image_1_" transform="translate(188.076060, 137.453758)">
		<g>
			<path id="Rectangle_1_" class="st0" d="M209,15.7c1.1,0.1,2.1,0.6,2.7,1.4c0.7,0.8,1,1.8,0.9,2.9l0,0l-17.8,203.6
				c-0.1,1.1-0.6,2.1-1.4,2.7c-0.8,0.7-1.8,1-2.9,0.9l0,0L2.9,210.9c-1.1-0.1-2.1-0.6-2.7-1.4c-0.7-0.8-1-1.8-0.9-2.9l0,0L17.1,2.9
				c0.1-1.1,0.6-2.1,1.4-2.7c0.8-0.7,1.8-1,2.9-0.9l0,0L209,15.7z"/>
			<path class="st1" d="M190.9,228.3c-0.1,0-0.3,0-0.4,0L2.8,211.8c-1.3-0.1-2.5-0.7-3.4-1.8c-0.9-1-1.3-2.3-1.2-3.6L16.1,2.8
				c0.1-1.3,0.7-2.5,1.8-3.4c1-0.9,2.3-1.3,3.6-1.2l187.6,16.4c1.3,0.1,2.5,0.7,3.4,1.8c0.9,1,1.3,2.3,1.2,3.6l-17.8,203.6
				c-0.1,1.3-0.7,2.5-1.8,3.4C193.2,227.9,192.1,228.3,190.9,228.3z M21.1,0.2c-0.7,0-1.4,0.2-1.9,0.7c-0.6,0.5-1,1.2-1.1,2
				L0.3,206.6c-0.1,0.8,0.2,1.6,0.7,2.2c0.5,0.6,1.2,1,2,1.1l187.6,16.4c0.8,0.1,1.6-0.2,2.2-0.7c0.6-0.5,1-1.2,1.1-2l17.8-203.6
				c0.1-0.8-0.2-1.6-0.7-2.2c-0.5-0.6-1.2-1-2-1.1L21.3,0.3C21.2,0.3,21.1,0.2,21.1,0.2z"/>
		</g>
		<path class="st1" d="M183.8,205.8c-0.2,0-0.3,0-0.5,0L12.6,189.8c-1.3-0.1-2.5-0.8-3.4-1.8c-0.9-1-1.3-2.3-1.1-3.7l16-171.6
			c0.1-1.3,0.8-2.5,1.8-3.4c1-0.9,2.3-1.3,3.7-1.1l170.7,15.9c1.3,0.1,2.5,0.8,3.4,1.8c0.9,1,1.3,2.3,1.1,3.7l-16,171.6
			c-0.1,1.3-0.8,2.5-1.8,3.4C186.1,205.4,184.9,205.8,183.8,205.8z M29.1,10.3c-0.7,0-1.4,0.2-1.9,0.7c-0.6,0.5-1,1.2-1.1,2
			l-16,171.6c-0.1,0.8,0.2,1.6,0.7,2.2c0.5,0.6,1.2,1,2,1.1l170.7,15.9c0.8,0.1,1.6-0.2,2.2-0.7c0.6-0.5,1-1.2,1.1-2l16-171.6
			c0.1-0.8-0.2-1.6-0.7-2.2c-0.5-0.6-1.2-1-2-1.1L29.4,10.3C29.3,10.3,29.2,10.3,29.1,10.3z"/>
		<defs>
			<filter id="Adobe_OpacityMaskFilter" filterUnits="userSpaceOnUse" x="34.7" y="55.6" width="145" height="106.5">
				<feColorMatrix  type="matrix" values="1 0 0 0 0  0 1 0 0 0  0 0 1 0 0  0 0 0 1 0"/>
			</filter>
		</defs>
		<mask maskUnits="userSpaceOnUse" x="34.7" y="55.6" width="145" height="106.5" id="mask-6_3_">
			<g class="st2">
				<path id="path-5_3_" class="st3" d="M18.2,16.2l171.3-6.1c1.7-0.1,3,1.2,3.1,2.9l6.1,172.2c0.1,1.7-1.2,3-2.9,3.1l-171.3,6.1
					c-1.7,0.1-3-1.2-3.1-2.9L15.3,19.3C15.3,17.6,16.6,16.2,18.2,16.2z"/>
			</g>
		</mask>
		<g id="Group" class="st4">
			<g id="icons_x2F_house" transform="translate(32.869369, 40.163070)">
				<g transform="translate(72.211766, 72.211766) rotate(5.000000) translate(-72.211766, -72.211766) ">
					<path id="Combined-Shape" class="st5" d="M112.1,12.3l0.2,0.2l32.8,39.5c0.7,0.8,0.4,2.1-0.5,2.6l-0.2,0.1l-5.5,1.9l1.3,37.2
						c0,0.7-0.3,1.3-0.9,1.6l-0.2,0.1L61,123l-0.1,0c0,0,0,0,0,0l0.1,0c-0.4,0.1-0.7,0.1-1.1,0c0,0,0,0,0,0l0,0
						c-0.1,0-0.1,0-0.2-0.1l0,0l-48.2-22.5c-0.5-0.2-0.9-0.7-0.9-1.2l0-0.2L9,56l-0.1,0l-8-3.1l0,0c0,0-0.1,0-0.1,0l0.1,0
						c-0.1,0-0.1,0-0.2-0.1c0,0-0.1,0-0.1,0c0,0,0,0-0.1,0c0,0,0,0-0.1,0c0,0,0,0,0,0c0,0,0,0-0.1,0c-0.1-0.1-0.2-0.2-0.2-0.3
						C0,52.2-0.1,52-0.1,51.8c0-0.1-0.1-0.2-0.1-0.3c0-0.1,0-0.3,0-0.4c0,0,0-0.1,0-0.1c0-0.1,0-0.2,0.1-0.4c0,0,0,0,0,0l0,0
						c0,0,0-0.1,0-0.1l-0.1,0.1c0-0.1,0-0.1,0.1-0.2c0,0,0-0.1,0-0.1c0,0,0,0,0-0.1c0,0,0,0,0-0.1c0,0,0-0.1,0.1-0.1c0,0,0,0,0,0
						c0,0,0,0,0-0.1c0,0,0,0,0.1-0.1c0,0,0,0,0.1-0.1c0,0,0,0,0,0c0,0,0,0,0.1-0.1c0,0,0,0,0.1,0c0,0,0,0,0.1,0c0,0,0,0,0.1,0
						c0,0,0,0,0.1,0c0,0,0,0,0,0l0,0c0.1,0,0.1-0.1,0.2-0.1l0,0l109.3-37.8c0.2-0.1,0.4-0.1,0.6-0.1
						C111.3,11.8,111.8,11.9,112.1,12.3z M135.5,57.7L66.1,82.2c-0.6,0.2-1.2,0.1-1.7-0.3l-0.2-0.2l-3.7-4.4l1.5,41.8l74.7-26.4
						L135.5,57.7z M31.8,42.6l-19.6,6.8l1.7,48.4l8,3.8l-1.1-30.6c0-1.1,1-1.9,2-1.7l0.2,0.1l16,5.8c0.6,0.2,1,0.7,1.1,1.3l0,0.2
						l1.2,34.1l17.2,8.1L57,73L31.8,42.6z M24.3,73.3l1.1,29.9l12.6,5.9l-1.1-31.3L24.3,73.3z M94.5,78c1.1-0.3,2.2,0.4,2.2,1.6l0,0
						l0.6,17.4c0,0.8-0.5,1.4-1.2,1.7l0,0l-17.9,5.8c-1.1,0.3-2.2-0.4-2.2-1.5l0,0l-0.6-17.5c0-0.8,0.5-1.4,1.2-1.7l0,0L94.5,78z
						 M84.5,84.7l-5.6,1.8l0.5,13.9l5.6-1.8L84.5,84.7z M93.5,81.9l-5.6,1.8l0.5,13.9l5.6-1.8L93.5,81.9z M123.5,67.9
						c1.1-0.3,2.2,0.4,2.2,1.6l0,0l0.6,17.4c0,0.8-0.5,1.4-1.2,1.7l0,0l-17.9,5.8c-1.1,0.3-2.2-0.4-2.2-1.5l0,0l-0.6-17.5
						c0-0.8,0.5-1.4,1.2-1.7l0,0L123.5,67.9z M113.5,74.7l-5.6,1.8l0.5,13.9l5.6-1.8L113.5,74.7z M122.4,71.8l-5.6,1.8l0.5,13.9
						l5.6-1.8L122.4,71.8z M110.4,15.4l-75.2,26L60,71.3c0,0,0,0,0,0l6,7.3l74.9-26.4L110.4,15.4z M8.8,50.6l-2.4,0.8l2.5,0.9
						L8.8,50.6z"/>
				</g>
			</g>
		</g>
	</g>
</g>
</svg>
