<svg xmlns="http://www.w3.org/2000/svg" width="31.88" height="32" viewBox="0 0 201.419 201.42">
  <g id="Grupo_372766" data-name="Grupo 372766" transform="translate(-5758.961 1214.271)">
    <path id="Trazado_285833" data-name="Trazado 285833" d="M348.869,153.6l-50.9-20.61a28.968,28.968,0,0,0-22.17.176L225.24,154.584a28.968,28.968,0,0,0-15.552,15.8l-20.61,50.9a28.968,28.968,0,0,0,.176,22.17l21.416,50.563a28.967,28.967,0,0,0,15.8,15.552l50.9,20.61a28.968,28.968,0,0,0,22.17-.176L350.1,308.582a28.968,28.968,0,0,0,15.552-15.8l20.609-50.9a28.967,28.967,0,0,0-.176-22.17L364.67,169.152a28.966,28.966,0,0,0-15.8-15.552" transform="translate(5572 -1345.145)" fill="#efefef"/>
    <path id="Trazado_285834" data-name="Trazado 285834" d="M296.472,336.071a30.64,30.64,0,0,1-11.513-2.258L238.47,314.987a30.467,30.467,0,0,1-16.728-16.464L202.181,252.34a30.467,30.467,0,0,1-.186-23.47l18.824-46.489a30.462,30.462,0,0,1,16.464-16.727l46.184-19.562a30.464,30.464,0,0,1,23.469-.187l46.489,18.824a30.468,30.468,0,0,1,16.728,16.464l19.562,46.184a30.467,30.467,0,0,1,.186,23.47l-18.824,46.488a30.467,30.467,0,0,1-16.464,16.728l-46.184,19.562a30.6,30.6,0,0,1-11.957,2.446m-1.048-189.024a27.229,27.229,0,0,0-10.633,2.174l-46.184,19.562a27.093,27.093,0,0,0-14.639,14.874l-18.824,46.489a27.091,27.091,0,0,0,.165,20.869L224.871,297.2a27.091,27.091,0,0,0,14.875,14.639l46.489,18.825A27.085,27.085,0,0,0,307.1,330.5l46.184-19.562a27.092,27.092,0,0,0,14.639-14.875l18.824-46.488a27.089,27.089,0,0,0-.165-20.869l-19.562-46.184a27.094,27.094,0,0,0-14.875-14.639L305.66,149.055a27.235,27.235,0,0,0-10.236-2.008" transform="translate(5563.724 -1353.421)" fill="#99c942"/>
    <path id="Trazado_285835" data-name="Trazado 285835" d="M406.834,357.693a.961.961,0,0,1-.937-1.181c6.717-28.681,14.37-53.486,22.748-73.726,6.717-16.226,13.916-29.581,21.4-39.694,12.886-17.416,22.154-19.234,22.543-19.3a.961.961,0,0,1,.34,1.892,18.88,18.88,0,0,0-6.047,2.988c-3.491,2.35-9.024,7.021-15.555,15.925-11.556,15.754-28.493,48.034-43.556,112.355a.962.962,0,0,1-.935.742" transform="translate(5430.175 -1405.333)" fill="#d9e3ef"/>
    <path id="Trazado_285836" data-name="Trazado 285836" d="M387.109,381.068a.962.962,0,0,1-.854-1.4c14.471-28.058,28.353-51.571,41.259-69.887,10.348-14.686,20.105-26.093,29-33.906,15.431-13.554,23.091-11.675,23.409-11.588l-.5,1.855.013,0c-.018,0-1.816-.417-5.419.793-3.359,1.128-9,3.929-16.777,10.866-13.749,12.259-36.927,40.035-69.271,102.745a.961.961,0,0,1-.855.521" transform="translate(5442.953 -1431.49)" fill="#d9e3ef"/>
    <path id="Trazado_285837" data-name="Trazado 285837" d="M399.757,356.009a.961.961,0,0,1-.95-.824c-6.013-41.81-13.321-74.24-21.722-96.388-7.178-18.924-13.683-26.392-17.877-29.326-3.259-2.279-5.252-1.894-5.272-1.89l.018,0-.468-1.865c.267-.067,2.714-.579,6.538,1.987a32.751,32.751,0,0,1,8.362,9.007,105.537,105.537,0,0,1,10.278,20.834c8.542,22.292,15.96,55.052,22.046,97.37a.961.961,0,0,1-.814,1.088.915.915,0,0,1-.138.01" transform="translate(5464.115 -1406.533)" fill="#d9e3ef"/>
    <path id="Trazado_285838" data-name="Trazado 285838" d="M393.382,383.605a.962.962,0,0,1-.916-.669c-18.2-57.039-35.723-85.882-47.222-100.035-12.3-15.143-20.281-16.977-20.36-16.994a.961.961,0,1,1,.4-1.881c.35.074,8.725,2,21.454,17.662,7.4,9.1,14.776,21.026,21.938,35.441,8.934,17.983,17.555,39.926,25.624,65.222a.961.961,0,0,1-.916,1.254" transform="translate(5483.139 -1431.397)" fill="#d9e3ef"/>
    <path id="Trazado_285839" data-name="Trazado 285839" d="M329.823,387.513l10.49,14.841L434.2,336.39l8.266,11.893,5.576-32.82-32.508-5.852,8.219,11.8Z" transform="translate(5479.444 -1460.943)" fill="#0089ad"/>
    <path id="Trazado_285840" data-name="Trazado 285840" d="M402.939,392.635l-9.573,15.448-97.9-59.855L287.93,360.6l-7.551-32.423,32.094-7.809-7.49,12.279Z" transform="translate(5511.478 -1467.912)" fill="#99c942"/>
    <path id="Trazado_285841" data-name="Trazado 285841" d="M437.067,366.749l-18.011-2.428,14.115-107.812L418.8,254.687l26.51-20.136,20.237,26.106-14.267-1.821Z" transform="translate(5421.797 -1412.314)" fill="#fde101"/>
  </g>
</svg>
